# xmcd CD database file
#
# Track frame offsets:
#	150
#	19992
#	39995
#	61210
#	82352
#	103685
#	127210
#	146140
#	166490
#	186550
#	205950
#	230885
#	246127
#	264877
#	303002
#
# Disc length: 4440 seconds
#
# Revision: 2
# Processed by: cddbd v1.5.2PL0 Copyright (c) Steve Scherf et al.
# Submitted via: CDex 1.70beta2
#
DISCID=e011560f
DTITLE=ISSA - EXTENSION
DYEAR=2003
DGENRE=J-Rock
TTITLE0=FIGHT THE FUTURE
TTITLE1=PLAY,THIS,SATISFY(エステティックTBC JUST BEAUTY キャンペーンソング)
TTITLE2=Sweet surrender
TTITLE3=Under the sky
TTITLE4=Shape of Love
TTITLE5=Groovy
TTITLE6=Going down into you
TTITLE7=君へ
TTITLE8=GET BACK MY SOUL
TTITLE9=流星RIDE
TTITLE10=Crazy for you
TTITLE11=Breakin' Away
TTITLE12=LUV is Forever
TTITLE13=生きてる途中
TTITLE14=DataTrack
EXTD=YEAR: 2003
EXTT0=
EXTT1=
EXTT2=
EXTT3=
EXTT4=
EXTT5=
EXTT6=
EXTT7=
EXTT8=
EXTT9=
EXTT10=
EXTT11=
EXTT12=
EXTT13=
EXTT14=
PLAYORDER=
